<svg version="1.1" id="eqxiu" xmlns="http://www.w3.org/2000/svg" xmlns:xlink="http://www.w3.org/1999/xlink" x="0px" y="0px"
	 width="240.288px" height="166.746px" viewBox="0 0 240.288 166.746" enable-background="new 0 0 240.288 166.746"
	 xml:space="preserve">
<path fill="#C4BDB7" d="M240.288,166.746H28.954v-148h211.333V166.746z"/>
<path fill="#D9FAE7" d="M237.287,163.746H25.954v-148h211.333V163.746z"/>
<path fill="none" stroke="#80EEAF" stroke-width="0.75" stroke-linecap="round" stroke-miterlimit="10" d="M40.621,85.246h182"/>
<path fill="none" stroke="#80EEAF" stroke-width="0.75" stroke-linecap="round" stroke-miterlimit="10" d="M40.621,112.996h182"/>
<path fill="none" stroke="#80EEAF" stroke-width="0.75" stroke-linecap="round" stroke-miterlimit="10" d="M40.621,140.746h182"/>
<path fill="#D5D1CD" d="M140.491,63.899L5.305,70.217L3.5,31.592l135.186-6.317L140.491,63.899z"/>
<path fill="#FE9E7D" d="M138.491,61.899L3.305,68.216L1.5,29.592l135.186-6.317L138.491,61.899z"/>
<path fill="#D5D1CD" d="M58.482,43.968c-1.166,1.303-2.915,1.964-5.198,1.964c-7.687,0-7.687-7.29-7.687-11.646V16.029
	c0-0.617,0.502-1.119,1.119-1.119s1.119,0.502,1.119,1.119v18.257c0,6.374,0.815,9.407,5.449,9.407c1.613,0,2.797-0.406,3.521-1.208
	c0.978-1.08,0.885-2.603,0.872-2.773l-0.006-0.101l0-23.866h-1.931v-1.068c0-0.617,0.502-1.12,1.12-1.12
	c0.322,0,0.607,0.141,0.812,0.359V8.495c0-3.536-1.245-5.255-3.807-5.255c-2.561,0-3.223,2.404-3.33,2.886l0.006,9.62h-2.232
	l0.006-9.912C48.607,4.134,50.139,1,53.863,1c3.842,0,6.045,2.731,6.045,7.495v31.054C59.945,40.007,60.033,42.237,58.482,43.968z"
	/>
<path fill="#28BDF8" d="M57.482,42.968c-1.166,1.303-2.915,1.964-5.198,1.964c-7.687,0-7.687-7.29-7.687-11.646V15.029
	c0-0.617,0.502-1.119,1.119-1.119s1.119,0.502,1.119,1.119v18.257c0,6.374,0.815,9.407,5.449,9.407c1.613,0,2.797-0.406,3.521-1.208
	c0.978-1.08,0.885-2.603,0.872-2.773l-0.006-0.101l0-22.866h-1.931v-2.068c0-0.617,0.502-1.12,1.12-1.12
	c0.322,0,0.607,0.141,0.812,0.359V7.495c0-3.536-1.245-5.255-3.807-5.255c-2.561,0-3.223,2.404-3.33,2.886l0.006,10.62h-2.232
	l0.006-10.912C47.607,3.134,49.139,0,52.863,0c3.842,0,6.045,2.731,6.045,7.495v31.054C58.945,39.007,59.033,41.237,57.482,42.968z"
	/>
</svg>
