<svg xmlns="http://www.w3.org/2000/svg" xmlns:xlink="http://www.w3.org/1999/xlink" xmlns:ev="http://www.w3.org/2001/xml-events" version="1.1" baseProfile="full" height="465px" width="1201px">
<path fill="rgb( 254, 121, 162 )" d="M3,244 C3,244 518,141 518,141 C518,141 868,77 868,77 C868,77 1024,39 1024,39 C1024,39 1162,8 1162,8 C1162,8 1201,0 1201,0 C1201,0 1196,33 1196,33 C1196,33 210,238 210,238 C210,238 1196,44 1196,44 C1196,44 1197,160 1197,160 C1197,160 77,398 77,398 C77,398 1196,178 1196,178 C1196,178 1194,210 1194,210 C1194,210 11,438 11,438 C11,438 14,448 14,448 C14,448 791,294 791,294 C791,294 0,465 0,465 C0,465 3,244 3,244 Z " />
</svg>











